<svg width="116" height="37" viewBox="0 0 116 37" fill="none" xmlns="http://www.w3.org/2000/svg">
<path d="M18.5205 0.5C17.1169 0.5 15.7508 0.660642 14.4402 0.965194C7.77553 2.50937 2.52988 7.75502 0.985702 14.419C0.68115 15.7303 0.520508 17.0964 0.520508 18.5C0.520508 28.4411 8.57941 36.5 18.5205 36.5C19.9241 36.5 21.2903 36.3394 22.6015 36.0348C29.2655 34.4906 34.5111 29.2456 36.056 22.5823C36.3605 21.2711 36.5212 19.9043 36.5212 18.5C36.5212 8.5589 28.4616 0.5 18.5205 0.5ZM18.5205 29.7724C17.1919 29.7724 15.9174 29.5428 14.734 29.1205C11.5546 27.9866 9.03456 25.4665 7.9007 22.2871C7.47834 21.1037 7.24876 19.8286 7.24876 18.5C7.24876 12.2744 12.2949 7.22758 18.5205 7.22758C19.8492 7.22758 21.1236 7.45716 22.307 7.87952C25.4864 9.01339 28.0071 11.5335 29.141 14.7129C29.5633 15.8963 29.7929 17.1714 29.7929 18.5C29.7929 24.7256 24.7461 29.7724 18.5205 29.7724Z" fill="url(#paint0_linear_1_22)"/>
<path d="M18.5206 11.2349C14.5085 11.2349 11.2555 14.4879 11.2555 18.5C11.2555 22.512 14.5085 25.765 18.5206 25.765C22.5326 25.765 25.7856 22.512 25.7856 18.5C25.7856 14.4879 22.5333 11.2349 18.5206 11.2349ZM18.5206 22.8929C16.0949 22.8929 14.1276 20.9264 14.1276 18.5C14.1276 16.0736 16.0949 14.1071 18.5206 14.1071C20.9463 14.1071 22.9135 16.0736 22.9135 18.5C22.9135 20.9264 20.9469 22.8929 18.5206 22.8929Z" fill="#FEFCFE"/>
<path d="M22.307 7.87953C21.1236 7.45718 19.8492 7.22759 18.5205 7.22759C12.295 7.22759 7.24877 12.2744 7.24877 18.5C7.24877 19.8287 7.47835 21.1038 7.90071 22.2872C6.46229 21.7437 5.11356 20.8929 3.9556 19.735C2.43619 18.2155 1.44623 16.3675 0.985718 14.419C2.52989 7.75504 7.77554 2.50939 14.4402 0.96521C16.388 1.42572 18.2361 2.41568 19.7555 3.93509C20.9128 5.09239 21.7635 6.44111 22.307 7.87953Z" fill="url(#paint1_linear_1_22)"/>
<path d="M36.056 22.5824C34.5111 29.2457 29.2655 34.4907 22.6015 36.0348C20.6537 35.5743 18.8056 34.5844 17.2862 33.065C16.1283 31.907 15.2775 30.5583 14.734 29.1205C15.9174 29.5429 17.1918 29.7725 18.5205 29.7725C24.7461 29.7725 29.7929 24.7256 29.7929 18.5C29.7929 17.1714 29.5633 15.8963 29.141 14.7129C30.5787 15.2564 31.9274 16.1071 33.0854 17.2651C34.6048 18.7845 35.5955 20.6339 36.056 22.5824Z" fill="url(#paint2_linear_1_22)"/>
<path d="M9.61692 31.1713C11.6974 31.1713 13.384 29.4848 13.384 27.4043C13.384 25.3238 11.6974 23.6372 9.61692 23.6372C7.53643 23.6372 5.84985 25.3238 5.84985 27.4043C5.84985 29.4848 7.53643 31.1713 9.61692 31.1713Z" fill="url(#paint3_linear_1_22)"/>
<path d="M27.4576 13.3306C29.5381 13.3306 31.2247 11.6441 31.2247 9.56358C31.2247 7.48308 29.5381 5.79651 27.4576 5.79651C25.3771 5.79651 23.6906 7.48308 23.6906 9.56358C23.6906 11.6441 25.3771 13.3306 27.4576 13.3306Z" fill="url(#paint4_linear_1_22)"/>
<path d="M115.281 15.1086V17.0973H109.01V15.1086H115.281ZM110.558 12.495H113.129V22.7365C113.129 23.0821 113.181 23.3473 113.285 23.5319C113.394 23.7119 113.536 23.835 113.711 23.9012C113.886 23.9675 114.081 24.0007 114.294 24.0007C114.455 24.0007 114.601 23.9888 114.734 23.9652C114.871 23.9415 114.975 23.9202 115.046 23.9012L115.48 25.9112C115.342 25.9585 115.146 26.0106 114.89 26.0674C114.639 26.1243 114.331 26.1574 113.967 26.1669C113.323 26.1858 112.743 26.0887 112.227 25.8757C111.711 25.6579 111.301 25.3217 110.998 24.8672C110.7 24.4126 110.553 23.8444 110.558 23.1626V12.495Z" fill="#D4D4D8"/>
<path d="M104.619 26.0177V15.1087H107.19V26.0177H104.619ZM105.911 13.5604C105.504 13.5604 105.154 13.4254 104.86 13.1555C104.566 12.8809 104.42 12.5518 104.42 12.1683C104.42 11.7801 104.566 11.451 104.86 11.1811C105.154 10.9065 105.504 10.7692 105.911 10.7692C106.323 10.7692 106.673 10.9065 106.962 11.1811C107.256 11.451 107.403 11.7801 107.403 12.1683C107.403 12.5518 107.256 12.8809 106.962 13.1555C106.673 13.4254 106.323 13.5604 105.911 13.5604Z" fill="#D4D4D8"/>
<path d="M92.1345 26.0177V11.4723H94.7055V16.9126H94.8121C94.9447 16.6475 95.1317 16.3658 95.3732 16.0675C95.6146 15.7644 95.9413 15.5064 96.3533 15.2933C96.7652 15.0755 97.2908 14.9666 97.93 14.9666C98.7728 14.9666 99.5327 15.182 100.21 15.6129C100.892 16.0391 101.431 16.6712 101.829 17.5092C102.232 18.3426 102.433 19.3653 102.433 20.5774C102.433 21.7753 102.236 22.7933 101.843 23.6314C101.45 24.4694 100.915 25.1087 100.238 25.549C99.5611 25.9893 98.7941 26.2095 97.9371 26.2095C97.3121 26.2095 96.7936 26.1053 96.3817 25.897C95.9698 25.6887 95.6383 25.4377 95.3874 25.1442C95.1412 24.8459 94.9494 24.5641 94.8121 24.299H94.6629V26.0177H92.1345ZM94.6558 20.5632C94.6558 21.2687 94.7553 21.8866 94.9541 22.4169C95.1577 22.9472 95.4489 23.3615 95.8277 23.6598C96.2112 23.9534 96.6752 24.1001 97.2197 24.1001C97.7879 24.1001 98.2638 23.9486 98.6473 23.6456C99.0308 23.3378 99.3197 22.9188 99.5138 22.3885C99.7126 21.8534 99.8121 21.245 99.8121 20.5632C99.8121 19.8861 99.715 19.2848 99.5209 18.7592C99.3268 18.2337 99.0379 17.8217 98.6544 17.5234C98.2709 17.2251 97.7927 17.076 97.2197 17.076C96.6705 17.076 96.2041 17.2204 95.8206 17.5092C95.4371 17.798 95.1459 18.2029 94.947 18.7237C94.7529 19.2445 94.6558 19.8577 94.6558 20.5632Z" fill="#D4D4D8"/>
<path d="M84.0912 26.0177V15.1086H86.5841V16.9268H86.6977C86.8966 16.2971 87.2375 15.8118 87.7204 15.4709C88.2081 15.1252 88.7645 14.9524 89.3895 14.9524C89.5315 14.9524 89.6901 14.9595 89.8653 14.9737C90.0453 14.9832 90.1944 14.9997 90.3128 15.0234V17.3885C90.2039 17.3506 90.0311 17.3174 89.7943 17.289C89.5623 17.2559 89.3374 17.2393 89.1196 17.2393C88.6508 17.2393 88.2294 17.3411 87.8554 17.5447C87.4861 17.7436 87.1949 18.0206 86.9818 18.3757C86.7687 18.7308 86.6622 19.1404 86.6622 19.6044V26.0177H84.0912Z" fill="#D4D4D8"/>
<path d="M76.6817 26.2308C75.6164 26.2308 74.6931 25.9964 73.9119 25.5277C73.1306 25.0589 72.5245 24.4032 72.0937 23.5604C71.6675 22.7176 71.4545 21.7327 71.4545 20.6058C71.4545 19.4789 71.6675 18.4917 72.0937 17.6442C72.5245 16.7966 73.1306 16.1385 73.9119 15.6697C74.6931 15.201 75.6164 14.9666 76.6817 14.9666C77.7471 14.9666 78.6704 15.201 79.4516 15.6697C80.2329 16.1385 80.8366 16.7966 81.2627 17.6442C81.6936 18.4917 81.909 19.4789 81.909 20.6058C81.909 21.7327 81.6936 22.7176 81.2627 23.5604C80.8366 24.4032 80.2329 25.0589 79.4516 25.5277C78.6704 25.9964 77.7471 26.2308 76.6817 26.2308ZM76.6959 24.1712C77.2736 24.1712 77.7566 24.0125 78.1448 23.6953C78.5331 23.3733 78.8219 22.9425 79.0113 22.4027C79.2054 21.8629 79.3025 21.2616 79.3025 20.5987C79.3025 19.9311 79.2054 19.3274 79.0113 18.7876C78.8219 18.2431 78.5331 17.8099 78.1448 17.4879C77.7566 17.166 77.2736 17.005 76.6959 17.005C76.1041 17.005 75.6117 17.166 75.2187 17.4879C74.8304 17.8099 74.5392 18.2431 74.3451 18.7876C74.1557 19.3274 74.061 19.9311 74.061 20.5987C74.061 21.2616 74.1557 21.8629 74.3451 22.4027C74.5392 22.9425 74.8304 23.3733 75.2187 23.6953C75.6117 24.0125 76.1041 24.1712 76.6959 24.1712Z" fill="#D4D4D8"/>
<path d="M67.7063 26.174C67.2754 26.174 66.9061 26.0225 66.5983 25.7194C66.2906 25.4164 66.139 25.0471 66.1438 24.6115C66.139 24.1853 66.2906 23.8207 66.5983 23.5177C66.9061 23.2147 67.2754 23.0632 67.7063 23.0632C68.123 23.0632 68.4852 23.2147 68.7929 23.5177C69.1054 23.8207 69.264 24.1853 69.2688 24.6115C69.264 24.9003 69.1883 25.1631 69.0415 25.3998C68.8995 25.6366 68.7101 25.826 68.4733 25.968C68.2413 26.1053 67.9856 26.174 67.7063 26.174Z" fill="#D4D4D8"/>
<path d="M56.506 19.6257V26.0177H53.9349V15.1087H56.3923V16.9624H56.5202C56.7711 16.3516 57.1712 15.8662 57.7204 15.5064C58.2744 15.1465 58.9586 14.9666 59.773 14.9666C60.5258 14.9666 61.1816 15.1276 61.7403 15.4496C62.3038 15.7715 62.7394 16.2379 63.0472 16.8487C63.3597 17.4595 63.5135 18.2005 63.5088 19.0717V26.0177H60.9378V19.4695C60.9378 18.7403 60.7484 18.1697 60.3696 17.7578C59.9955 17.3459 59.4771 17.1399 58.8142 17.1399C58.3644 17.1399 57.9643 17.2393 57.6139 17.4382C57.2683 17.6323 56.996 17.9141 56.7972 18.2834C56.603 18.6527 56.506 19.1001 56.506 19.6257Z" fill="#D4D4D8"/>
<path d="M48.7201 26.0177V15.1087H51.2911V26.0177H48.7201ZM50.0127 13.5604C49.6055 13.5604 49.2551 13.4254 48.9616 13.1555C48.668 12.8809 48.5212 12.5518 48.5212 12.1683C48.5212 11.7801 48.668 11.451 48.9616 11.1811C49.2551 10.9065 49.6055 10.7692 50.0127 10.7692C50.4246 10.7692 50.775 10.9065 51.0639 11.1811C51.3574 11.451 51.5042 11.7801 51.5042 12.1683C51.5042 12.5518 51.3574 12.8809 51.0639 13.1555C50.775 13.4254 50.4246 13.5604 50.0127 13.5604Z" fill="#D4D4D8"/>
<defs>
<linearGradient id="paint0_linear_1_22" x1="31.0761" y1="6.63588" x2="6.35585" y2="29.9953" gradientUnits="userSpaceOnUse">
<stop stop-color="#F38856"/>
<stop offset="0.23" stop-color="#F0625C"/>
<stop offset="1" stop-color="#5C3DAB"/>
</linearGradient>
<linearGradient id="paint1_linear_1_22" x1="17.3813" y1="3.55156" x2="3.32039" y2="17.5368" gradientUnits="userSpaceOnUse">
<stop stop-color="#F67986"/>
<stop offset="1" stop-color="#8951BA"/>
</linearGradient>
<linearGradient id="paint2_linear_1_22" x1="33.4629" y1="19.7196" x2="19.402" y2="33.7055" gradientUnits="userSpaceOnUse">
<stop stop-color="#F67986"/>
<stop offset="1" stop-color="#8951BA"/>
</linearGradient>
<linearGradient id="paint3_linear_1_22" x1="12.3673" y1="24.8306" x2="6.86592" y2="29.9779" gradientUnits="userSpaceOnUse">
<stop stop-color="#A267B9"/>
<stop offset="1" stop-color="#704BB4"/>
</linearGradient>
<linearGradient id="paint4_linear_1_22" x1="29.7474" y1="7.42034" x2="25.9918" y2="10.9351" gradientUnits="userSpaceOnUse">
<stop stop-color="#F7A8A5"/>
<stop offset="0.97" stop-color="#D074C4"/>
<stop offset="1" stop-color="#CF76A9"/>
</linearGradient>
</defs>
</svg>
